<svg width="24" height="25" viewBox="0 0 24 25" fill="none" xmlns="http://www.w3.org/2000/svg">
<path d="M15.9061 19.7302C16.0364 19.6002 16.1398 19.4458 16.2103 19.2757C16.2808 19.1057 16.3171 18.9235 16.3171 18.7394C16.3171 18.5554 16.2808 18.3731 16.2103 18.2031C16.1398 18.0331 16.0364 17.8786 15.9061 17.7486L10.4532 12.2957L15.9061 6.84281C16.1689 6.58003 16.3165 6.22363 16.3165 5.85201C16.3165 5.48039 16.1689 5.12399 15.9061 4.86121C15.6434 4.59844 15.287 4.45081 14.9153 4.45081C14.5437 4.45081 14.1873 4.59844 13.9245 4.86121L7.47381 11.3119C7.34353 11.442 7.24017 11.5964 7.16964 11.7664C7.09912 11.9364 7.06282 12.1187 7.06282 12.3027C7.06282 12.4868 7.09912 12.6691 7.16964 12.8391C7.24017 13.0091 7.34353 13.1635 7.47381 13.2935L13.9245 19.7443C14.4586 20.2783 15.358 20.2783 15.9061 19.7302Z" fill="#333333"/>
</svg>
