<svg width="22" height="22" viewBox="0 0 22 22" fill="none" xmlns="http://www.w3.org/2000/svg">
<path d="M10.9758 16.5024C10.7354 16.6626 10.4849 16.8069 10.2258 16.9346V20.6387C10.2258 20.8376 10.3048 21.0284 10.4455 21.169C10.5861 21.3097 10.7769 21.3887 10.9758 21.3887C11.1747 21.3887 11.3655 21.3097 11.5061 21.169C11.6468 21.0284 11.7258 20.8376 11.7258 20.6387V16.9346C11.4667 16.8069 11.2162 16.6626 10.9758 16.5024Z" fill="#41C364"/>
<path d="M17.5533 4.7573C17.0108 3.4619 16.0975 2.35574 14.9282 1.57778C13.759 0.799818 12.3859 0.384766 10.9814 0.384766C9.57702 0.384766 8.20392 0.799818 7.03465 1.57778C5.86539 2.35574 4.95211 3.4619 4.40957 4.7573C3.24211 5.29818 2.25274 6.16022 1.55714 7.24265C0.86153 8.32507 0.488425 9.58315 0.481442 10.8698C0.471129 14.5092 3.42144 17.5448 7.05707 17.6385C8.15687 17.6672 9.2469 17.4255 10.2314 16.9345V13.6017L6.14582 11.5598C5.96779 11.4708 5.83241 11.3147 5.76947 11.1259C5.70653 10.937 5.72118 10.7309 5.81019 10.5529C5.8992 10.3749 6.05529 10.2395 6.24412 10.1766C6.43294 10.1136 6.63904 10.1283 6.81707 10.2173L10.2314 11.9254V7.13855C10.2314 6.93964 10.3105 6.74887 10.4511 6.60822C10.5918 6.46757 10.7825 6.38855 10.9814 6.38855C11.1804 6.38855 11.3711 6.46757 11.5118 6.60822C11.6524 6.74887 11.7314 6.93964 11.7314 7.13855V9.67542L15.1458 7.9673C15.234 7.92322 15.3299 7.89694 15.4282 7.88996C15.5265 7.88297 15.6253 7.89541 15.7188 7.92658C15.8123 7.95775 15.8987 8.00702 15.9732 8.07159C16.0476 8.13617 16.1086 8.21477 16.1527 8.30292C16.1968 8.39107 16.223 8.48704 16.23 8.58535C16.237 8.68365 16.2246 8.78237 16.1934 8.87587C16.1622 8.96937 16.113 9.05581 16.0484 9.13026C15.9838 9.20472 15.9052 9.26572 15.8171 9.3098L11.7314 11.3517V16.9345C12.6631 17.3991 13.6903 17.6402 14.7314 17.6385H14.9058C18.5414 17.5448 21.4918 14.511 21.4814 10.8717C21.4752 9.58463 21.1024 8.32601 20.4067 7.24316C19.711 6.16031 18.7213 5.29804 17.5533 4.7573Z" fill="#41C364"/>
</svg>
