<svg width="21" height="21" viewBox="0 0 21 21" fill="none" xmlns="http://www.w3.org/2000/svg">
<path fill-rule="evenodd" clip-rule="evenodd" d="M18.761 8.49477V2.38477C18.761 1.85433 18.5502 1.34562 18.1752 0.970552C17.8001 0.595479 17.2914 0.384766 16.761 0.384766H12.581H6.94096H2.76096C1.66096 0.384766 0.760956 1.28477 0.760956 2.38477V16.3848C0.760956 16.9152 0.971669 17.4239 1.34674 17.799C1.72181 18.1741 2.23052 18.3848 2.76096 18.3848H8.87096C10.131 19.6248 11.851 20.3848 13.761 20.3848C17.631 20.3848 20.761 17.2548 20.761 13.3848C20.761 11.4748 20.001 9.75477 18.761 8.49477ZM15.761 4.38477H3.76096V6.38477H15.761V4.38477ZM3.76096 14.3848H6.84096C6.79096 14.0548 6.76096 13.7248 6.76096 13.3848C6.76096 13.0448 6.79096 12.7148 6.84096 12.3848H3.76096V14.3848ZM3.76096 8.38477V10.3848H7.44096C7.80096 9.63477 8.26096 8.95477 8.87096 8.38477H3.76096ZM8.76096 13.3848C8.76096 16.1448 11.001 18.3848 13.761 18.3848C16.521 18.3848 18.761 16.1448 18.761 13.3848C18.761 10.6248 16.521 8.38477 13.761 8.38477C11.001 8.38477 8.76096 10.6248 8.76096 13.3848Z" fill="#999999"/>
<path fill-rule="evenodd" clip-rule="evenodd" d="M14.261 13.6348L17.121 15.3248L16.371 16.5448L12.761 14.3848V9.38477H14.261V13.6348Z" fill="#999999"/>
</svg>
