<svg width="21" height="21" viewBox="0 0 21 21" fill="none" xmlns="http://www.w3.org/2000/svg">
<path d="M9.72145 0.966829C10.0778 0.677774 10.5226 0.52002 10.9814 0.52002C11.4403 0.52002 11.8851 0.677774 12.2414 0.966829L19.8694 7.14683C20.2163 7.42771 20.4961 7.78245 20.6885 8.18519C20.8809 8.58792 20.9809 9.02851 20.9814 9.47483V18.5228C20.9814 19.0533 20.7707 19.562 20.3957 19.937C20.0206 20.3121 19.5119 20.5228 18.9814 20.5228H15.9814C15.451 20.5228 14.9423 20.3121 14.5672 19.937C14.1922 19.562 13.9814 19.0533 13.9814 18.5228V13.5228C13.9814 13.2576 13.8761 13.0033 13.6886 12.8157C13.501 12.6282 13.2467 12.5228 12.9814 12.5228H8.98145C8.71623 12.5228 8.46188 12.6282 8.27434 12.8157C8.0868 13.0033 7.98145 13.2576 7.98145 13.5228V18.5228C7.98145 19.0533 7.77073 19.562 7.39566 19.937C7.02059 20.3121 6.51188 20.5228 5.98145 20.5228H2.98145C2.45101 20.5228 1.9423 20.3121 1.56723 19.937C1.19216 19.562 0.981445 19.0533 0.981445 18.5228V9.47683C0.981357 9.02983 1.08116 8.58847 1.27355 8.18499C1.46594 7.78152 1.74607 7.42614 2.09345 7.14483L9.72145 0.966829Z" fill="#41C364"/>
</svg>
