<svg width="60" height="67" viewBox="0 0 60 67" fill="none" xmlns="http://www.w3.org/2000/svg">
<path d="M44.8522 54.9244C53.0412 54.9244 59.6767 47.9859 59.6767 39.4289C59.6767 30.8718 53.0386 23.9334 44.8522 23.9334C44.8445 23.9334 44.8393 23.9334 44.8316 23.9334C43.9791 23.9334 43.3782 23.0476 43.7094 22.2262C44.5209 20.2024 44.9318 17.9612 44.8419 15.6072C44.526 7.62455 38.3374 1.12894 30.703 0.774633C22.2084 0.380065 15.2006 7.4635 15.2006 16.254C15.2006 18.3691 15.6089 20.3876 16.3433 22.2236C16.672 23.0449 16.0737 23.9334 15.2211 23.9307C15.2134 23.9307 15.2083 23.9307 15.2006 23.9307C7.0141 23.9334 0.376068 30.8692 0.376068 39.4289C0.376068 47.9886 7.0141 54.9244 15.2006 54.9244H44.8522Z" fill="#41C364"/>
<path d="M43.0854 34.2112H35.3817C35.3817 37.2979 32.9807 39.8076 30.0276 39.8076C27.0745 39.8076 24.6735 37.2979 24.6735 34.2112H16.9698C16.9698 40.3364 20.8499 45.5302 26.1758 47.2534V66.4584H33.8795V47.2534C39.2053 45.5302 43.0854 40.3364 43.0854 34.2112Z" fill="#F9BB3E"/>
</svg>
