<svg width="390" height="844" viewBox="0 0 390 844" fill="none" xmlns="http://www.w3.org/2000/svg">
<g clip-path="url(#clip0_438_2278)">
<rect width="390" height="844" fill="#ECFBC2"/>
<g filter="url(#filter0_i_438_2278)">
<path d="M421.013 467.646L383.972 467.646C377.025 467.646 371.393 462.014 371.393 455.067C371.393 448.12 377.025 442.489 383.972 442.489L421.013 442.489L421.013 467.646Z" fill="#DFFAA5"/>
</g>
<g filter="url(#filter1_i_438_2278)">
<rect x="237.996" y="690.892" width="32.8098" height="16.6348" rx="8.31742" transform="rotate(-180 237.996 690.892)" fill="#DFFAA5"/>
</g>
<g filter="url(#filter2_i_438_2278)">
<path d="M411.853 53.384C411.853 60.741 405.889 66.7051 398.531 66.7051L350.198 66.7051C342.841 66.7051 336.877 60.741 336.877 53.384C336.877 46.027 342.841 40.063 350.198 40.063L398.531 40.063C405.889 40.063 411.853 46.027 411.853 53.384Z" fill="#DFFAA5"/>
</g>
<g filter="url(#filter3_i_438_2278)">
<path fill-rule="evenodd" clip-rule="evenodd" d="M413.064 272.441C420.447 272.441 426.432 266.456 426.432 259.073C426.432 251.691 420.447 245.706 413.064 245.706L397.583 245.706C403.172 240.024 406.62 232.23 406.62 223.631C406.62 206.244 392.526 192.15 375.139 192.15L307.643 192.15C290.256 192.15 276.162 206.244 276.162 223.631C276.162 241.017 290.256 255.111 307.643 255.111L347.713 255.111C347.325 256.363 347.116 257.694 347.116 259.073C347.116 266.456 353.1 272.441 360.483 272.441L413.064 272.441Z" fill="#DFFAA5"/>
</g>
<g filter="url(#filter4_i_438_2278)">
<path fill-rule="evenodd" clip-rule="evenodd" d="M272.288 315.011C271.907 320.229 267.553 324.343 262.238 324.343L220.164 324.343C215.625 324.343 211.787 321.343 210.526 317.217L154.541 317.217C143.385 317.217 134.341 308.173 134.341 297.017C134.341 285.86 143.385 276.816 154.541 276.816L199.325 276.816C199.325 271.25 203.837 266.739 209.402 266.739L221.312 266.739C226.878 266.739 231.389 271.25 231.389 276.816L263.099 276.816C274.256 276.816 283.3 285.86 283.3 297.017C283.3 304.864 278.825 311.666 272.288 315.011Z" fill="#DFFAA5"/>
</g>
<g filter="url(#filter5_i_438_2278)">
<path fill-rule="evenodd" clip-rule="evenodd" d="M160.62 87.4075C160.62 92.9766 156.105 97.4912 150.536 97.4912L90.4751 97.4912C85.7597 97.4912 81.8003 94.2547 80.6972 89.8819L14.8863 89.8819C-2.87083 89.8819 -17.2659 75.4869 -17.2659 57.7298C-17.2659 39.9726 -2.87087 25.5776 14.8863 25.5776L66.6255 25.5776C67.6256 16.4104 75.3928 9.27634 84.8262 9.27634L89.5459 9.27634C98.9793 9.27634 106.747 16.4104 107.747 25.5776L142.63 25.5776C160.387 25.5776 174.782 39.9726 174.782 57.7298C174.782 68.9879 168.996 78.8946 160.235 84.6381C160.486 85.518 160.62 86.4471 160.62 87.4075Z" fill="#DFFAA5"/>
</g>
<g filter="url(#filter6_i_438_2278)">
<path fill-rule="evenodd" clip-rule="evenodd" d="M190.143 814.932C189.622 822.06 183.674 827.681 176.413 827.681L118.934 827.681C112.734 827.681 107.491 823.582 105.767 817.946L29.2852 817.946C14.0439 817.946 1.68823 805.59 1.68824 790.349C1.68824 775.107 14.0438 762.752 29.2852 762.752L90.4661 762.752C90.4661 762.752 90.4661 762.752 90.4661 762.752C90.4661 755.149 96.6295 748.985 104.232 748.985L120.503 748.985C128.106 748.985 134.27 755.149 134.27 762.752C134.27 762.752 134.27 762.752 134.27 762.752L177.59 762.752C192.831 762.752 205.187 775.107 205.187 790.349C205.187 801.07 199.073 810.363 190.143 814.932Z" fill="#DFFAA5"/>
</g>
<g filter="url(#filter7_i_438_2278)">
<path fill-rule="evenodd" clip-rule="evenodd" d="M248.117 705.704C242.146 705.704 237.307 710.543 237.307 716.514C237.307 722.484 242.146 727.324 248.117 727.324H253.108C259.078 727.324 263.918 722.484 263.918 716.514C263.918 710.543 259.078 705.704 253.108 705.704H248.117ZM274.306 736.88C270.001 736.88 266.511 740.37 266.511 744.675C266.511 748.98 270.001 752.47 274.306 752.47H274.738C279.043 752.47 282.533 748.98 282.533 744.675C282.533 740.37 279.043 736.88 274.738 736.88H274.306ZM292.847 752.731C292.847 736.248 306.209 722.886 322.691 722.886H406.165C432.771 722.886 454.34 744.455 454.34 771.062V771.062C454.34 797.669 432.771 819.238 406.165 819.238H376.729H292.847H275.855C265.731 819.238 257.523 811.031 257.523 800.907V800.237C257.523 790.483 265.431 782.575 275.185 782.575V782.575C284.939 782.575 292.847 774.668 292.847 764.914V752.731Z" fill="#DFFAA5"/>
</g>
<g filter="url(#filter8_i_438_2278)">
<path fill-rule="evenodd" clip-rule="evenodd" d="M122.523 179.775C122.523 183.923 119.159 187.287 115.011 187.287L86.1442 187.287C81.9955 187.287 78.6324 183.923 78.6324 179.775C78.6324 179.235 78.6893 178.708 78.7975 178.201C79.0465 177.033 78.2768 175.648 77.0828 175.648C58.9079 175.648 44.1743 160.914 44.1743 142.739C44.1743 124.565 58.9079 109.831 77.0828 109.831L177.752 109.831C177.764 109.831 177.774 109.821 177.774 109.809C177.774 103.006 183.289 97.4911 190.092 97.4911L227.948 97.4911C234.751 97.4911 240.266 103.006 240.266 109.809C240.266 116.612 234.751 122.127 227.948 122.127C222.053 122.127 218.326 129.446 219.674 135.185C220.244 137.611 220.545 140.14 220.545 142.739C220.545 160.914 205.812 175.648 187.637 175.648L125.658 175.648C123.784 175.648 122.523 177.901 122.523 179.775Z" fill="#D3F4FB"/>
</g>
<g filter="url(#filter9_i_438_2278)">
<path fill-rule="evenodd" clip-rule="evenodd" d="M250.851 532.526C250.851 529.05 248.033 526.232 244.557 526.232L214.532 526.232C211.056 526.232 208.238 529.05 208.238 532.526V532.526C208.238 534.096 207.182 535.983 205.612 535.983L202.356 535.983C187.127 535.983 174.781 548.329 174.781 563.558C174.781 578.787 187.127 591.132 202.356 591.132L304.475 591.132C304.486 591.132 304.494 591.141 304.494 591.151V591.151C304.494 596.852 309.115 601.473 314.816 601.473L354.846 601.473C360.547 601.473 365.168 596.852 365.168 591.151C365.168 585.451 360.547 580.83 354.846 580.83V580.83C348.852 580.83 344.96 573.249 345.768 567.31C345.935 566.083 346.021 564.83 346.021 563.558C346.021 548.329 333.675 535.983 318.446 535.983L253.478 535.983C251.908 535.983 250.851 534.096 250.851 532.526V532.526Z" fill="#D3F4FB"/>
</g>
<g filter="url(#filter10_i_438_2278)">
<path fill-rule="evenodd" clip-rule="evenodd" d="M226.623 432.783C226.623 440.869 220.068 447.423 211.982 447.423L125.196 447.423C117.11 447.423 110.556 440.869 110.556 432.783C110.556 424.697 104.001 418.143 95.9151 418.143L60.7429 418.143C57.7054 418.143 55.2429 415.68 55.2429 412.643C55.2429 409.605 57.7054 407.143 60.7429 407.143L75.5975 407.143C80.4517 407.143 84.3868 403.207 84.3868 398.353C84.3868 393.499 88.3219 389.564 93.1761 389.564L195.368 389.564C200.223 389.564 204.158 393.499 204.158 398.353C204.158 403.207 208.093 407.143 212.947 407.143L226.623 407.143L253.373 407.143C256.411 407.143 258.873 409.605 258.873 412.643C258.873 415.68 256.411 418.143 253.373 418.143L241.263 418.143C233.177 418.143 226.623 424.697 226.623 432.783Z" fill="#D3F4FB"/>
</g>
<g filter="url(#filter11_i_438_2278)">
<path fill-rule="evenodd" clip-rule="evenodd" d="M149.381 722.067C163.41 722.067 174.782 710.695 174.782 696.666C174.782 682.638 163.41 671.265 149.381 671.265L78.3577 671.265C76.8182 664.647 70.8833 659.716 63.7967 659.716L9.29247 659.716C1.03612 659.716 -5.65698 666.409 -5.65698 674.666C-5.65698 682.922 1.03614 689.615 9.2925 689.615L21.6314 689.615C20.9859 691.854 20.64 694.22 20.64 696.666C20.64 710.695 32.0125 722.067 46.0412 722.067L149.381 722.067Z" fill="#DFFAA5"/>
</g>
<g filter="url(#filter12_i_438_2278)">
<path fill-rule="evenodd" clip-rule="evenodd" d="M46.9238 323.33C56.6998 323.33 64.6248 315.405 64.6248 305.629C64.6248 301.88 63.4593 298.403 61.4709 295.541L78.0354 295.541C92.0641 295.541 103.437 284.169 103.437 270.14C103.437 256.111 92.0641 244.739 78.0354 244.739L16.6961 244.739C2.6674 244.739 -8.70507 256.111 -8.70507 270.14C-8.70507 277.066 -5.9327 283.345 -1.43707 287.928L-21.6184 287.928C-31.3944 287.928 -39.3193 295.853 -39.3193 305.629C-39.3193 315.405 -31.3944 323.33 -21.6184 323.33L46.9238 323.33Z" fill="#DFFAA5"/>
</g>
<path d="M44.1748 844.005C44.1748 796.945 82.4548 758.665 129.505 758.665H260.495C291.005 758.665 315.825 733.845 315.825 703.335C315.825 672.825 291.005 647.985 260.495 647.985H129.505C82.4548 647.985 44.1748 609.705 44.1748 562.655C44.1748 539.835 53.0448 518.415 69.1648 502.295C85.2748 486.185 106.705 477.305 129.495 477.305C168.755 477.305 218.135 477.305 260.485 477.325H260.495C275.275 477.325 289.155 471.575 299.605 461.125C310.055 450.675 315.815 436.785 315.815 422.005C315.815 391.495 290.995 366.675 260.485 366.675H129.505C82.4548 366.675 44.1748 328.395 44.1748 281.345C44.1748 234.295 82.4548 196.005 129.505 196.005H260.495C291.005 196.005 315.815 171.185 315.815 140.675C315.815 110.165 290.995 85.3251 260.495 85.3251H129.505C82.4548 85.3251 44.1748 47.0451 44.1748 -0.00488281H74.1748C74.1748 30.5051 98.9948 55.3251 129.505 55.3251H260.495C307.545 55.3251 345.815 93.6051 345.815 140.645C345.815 187.685 307.535 225.995 260.495 225.995H129.505C98.9948 225.995 74.1748 250.815 74.1748 281.315C74.1748 311.815 98.9948 336.655 129.505 336.655H260.495C307.545 336.655 345.815 374.935 345.825 421.975C345.825 444.765 336.945 466.195 320.825 482.315C304.715 498.425 283.285 507.295 260.495 507.295H260.475C218.125 507.295 168.745 507.285 129.495 507.275C114.715 507.275 100.825 513.025 90.3748 523.475C79.9248 533.925 74.1748 547.815 74.1748 562.595C74.1748 593.125 98.9948 617.945 129.505 617.945H260.495C307.545 617.945 345.825 656.225 345.825 703.265C345.825 750.305 307.545 788.615 260.495 788.615H129.505C98.9948 788.615 74.1748 813.435 74.1748 843.935H44.1748V844.005Z" fill="#FFFEE6"/>
<g filter="url(#filter13_i_438_2278)">
<path fill-rule="evenodd" clip-rule="evenodd" d="M57.8103 481.888C57.4291 487.106 53.0753 491.22 47.7605 491.22L5.68604 491.22C1.14747 491.22 -2.69031 488.22 -3.95189 484.094L-59.9362 484.094C-71.0927 484.094 -80.137 475.05 -80.137 463.893C-80.137 452.737 -71.0928 443.693 -59.9362 443.693L-15.1522 443.693C-15.1522 438.127 -10.6406 433.616 -5.07527 433.616L6.83482 433.616C12.4001 433.616 16.9117 438.127 16.9117 443.693L48.6215 443.693C59.778 443.693 68.8223 452.737 68.8223 463.893C68.8223 471.741 64.3475 478.543 57.8103 481.888Z" fill="#DFFAA5"/>
</g>
</g>
<defs>
<filter id="filter0_i_438_2278" x="371.394" y="442.488" width="49.6191" height="25.1577" filterUnits="userSpaceOnUse" color-interpolation-filters="sRGB">
<feFlood flood-opacity="0" result="BackgroundImageFix"/>
<feBlend mode="normal" in="SourceGraphic" in2="BackgroundImageFix" result="shape"/>
<feColorMatrix in="SourceAlpha" type="matrix" values="0 0 0 0 0 0 0 0 0 0 0 0 0 0 0 0 0 0 127 0" result="hardAlpha"/>
<feOffset/>
<feGaussianBlur stdDeviation="2"/>
<feComposite in2="hardAlpha" operator="arithmetic" k2="-1" k3="1"/>
<feColorMatrix type="matrix" values="0 0 0 0 0 0 0 0 0 0 0 0 0 0 0 0 0 0 0.1 0"/>
<feBlend mode="normal" in2="shape" result="effect1_innerShadow_438_2278"/>
</filter>
<filter id="filter1_i_438_2278" x="205.187" y="674.257" width="32.8096" height="16.6348" filterUnits="userSpaceOnUse" color-interpolation-filters="sRGB">
<feFlood flood-opacity="0" result="BackgroundImageFix"/>
<feBlend mode="normal" in="SourceGraphic" in2="BackgroundImageFix" result="shape"/>
<feColorMatrix in="SourceAlpha" type="matrix" values="0 0 0 0 0 0 0 0 0 0 0 0 0 0 0 0 0 0 127 0" result="hardAlpha"/>
<feOffset/>
<feGaussianBlur stdDeviation="2"/>
<feComposite in2="hardAlpha" operator="arithmetic" k2="-1" k3="1"/>
<feColorMatrix type="matrix" values="0 0 0 0 0 0 0 0 0 0 0 0 0 0 0 0 0 0 0.1 0"/>
<feBlend mode="normal" in2="shape" result="effect1_innerShadow_438_2278"/>
</filter>
<filter id="filter2_i_438_2278" x="336.877" y="40.063" width="74.9756" height="26.6421" filterUnits="userSpaceOnUse" color-interpolation-filters="sRGB">
<feFlood flood-opacity="0" result="BackgroundImageFix"/>
<feBlend mode="normal" in="SourceGraphic" in2="BackgroundImageFix" result="shape"/>
<feColorMatrix in="SourceAlpha" type="matrix" values="0 0 0 0 0 0 0 0 0 0 0 0 0 0 0 0 0 0 127 0" result="hardAlpha"/>
<feOffset/>
<feGaussianBlur stdDeviation="2"/>
<feComposite in2="hardAlpha" operator="arithmetic" k2="-1" k3="1"/>
<feColorMatrix type="matrix" values="0 0 0 0 0 0 0 0 0 0 0 0 0 0 0 0 0 0 0.1 0"/>
<feBlend mode="normal" in2="shape" result="effect1_innerShadow_438_2278"/>
</filter>
<filter id="filter3_i_438_2278" x="276.162" y="192.15" width="150.27" height="80.291" filterUnits="userSpaceOnUse" color-interpolation-filters="sRGB">
<feFlood flood-opacity="0" result="BackgroundImageFix"/>
<feBlend mode="normal" in="SourceGraphic" in2="BackgroundImageFix" result="shape"/>
<feColorMatrix in="SourceAlpha" type="matrix" values="0 0 0 0 0 0 0 0 0 0 0 0 0 0 0 0 0 0 127 0" result="hardAlpha"/>
<feOffset/>
<feGaussianBlur stdDeviation="2"/>
<feComposite in2="hardAlpha" operator="arithmetic" k2="-1" k3="1"/>
<feColorMatrix type="matrix" values="0 0 0 0 0 0 0 0 0 0 0 0 0 0 0 0 0 0 0.1 0"/>
<feBlend mode="normal" in2="shape" result="effect1_innerShadow_438_2278"/>
</filter>
<filter id="filter4_i_438_2278" x="134.341" y="266.739" width="148.959" height="57.6045" filterUnits="userSpaceOnUse" color-interpolation-filters="sRGB">
<feFlood flood-opacity="0" result="BackgroundImageFix"/>
<feBlend mode="normal" in="SourceGraphic" in2="BackgroundImageFix" result="shape"/>
<feColorMatrix in="SourceAlpha" type="matrix" values="0 0 0 0 0 0 0 0 0 0 0 0 0 0 0 0 0 0 127 0" result="hardAlpha"/>
<feOffset/>
<feGaussianBlur stdDeviation="2"/>
<feComposite in2="hardAlpha" operator="arithmetic" k2="-1" k3="1"/>
<feColorMatrix type="matrix" values="0 0 0 0 0 0 0 0 0 0 0 0 0 0 0 0 0 0 0.1 0"/>
<feBlend mode="normal" in2="shape" result="effect1_innerShadow_438_2278"/>
</filter>
<filter id="filter5_i_438_2278" x="-17.2656" y="9.27637" width="192.048" height="88.2148" filterUnits="userSpaceOnUse" color-interpolation-filters="sRGB">
<feFlood flood-opacity="0" result="BackgroundImageFix"/>
<feBlend mode="normal" in="SourceGraphic" in2="BackgroundImageFix" result="shape"/>
<feColorMatrix in="SourceAlpha" type="matrix" values="0 0 0 0 0 0 0 0 0 0 0 0 0 0 0 0 0 0 127 0" result="hardAlpha"/>
<feOffset/>
<feGaussianBlur stdDeviation="2"/>
<feComposite in2="hardAlpha" operator="arithmetic" k2="-1" k3="1"/>
<feColorMatrix type="matrix" values="0 0 0 0 0 0 0 0 0 0 0 0 0 0 0 0 0 0 0.1 0"/>
<feBlend mode="normal" in2="shape" result="effect1_innerShadow_438_2278"/>
</filter>
<filter id="filter6_i_438_2278" x="1.68848" y="748.985" width="203.498" height="78.6953" filterUnits="userSpaceOnUse" color-interpolation-filters="sRGB">
<feFlood flood-opacity="0" result="BackgroundImageFix"/>
<feBlend mode="normal" in="SourceGraphic" in2="BackgroundImageFix" result="shape"/>
<feColorMatrix in="SourceAlpha" type="matrix" values="0 0 0 0 0 0 0 0 0 0 0 0 0 0 0 0 0 0 127 0" result="hardAlpha"/>
<feOffset/>
<feGaussianBlur stdDeviation="2"/>
<feComposite in2="hardAlpha" operator="arithmetic" k2="-1" k3="1"/>
<feColorMatrix type="matrix" values="0 0 0 0 0 0 0 0 0 0 0 0 0 0 0 0 0 0 0.1 0"/>
<feBlend mode="normal" in2="shape" result="effect1_innerShadow_438_2278"/>
</filter>
<filter id="filter7_i_438_2278" x="237.307" y="705.704" width="217.033" height="113.534" filterUnits="userSpaceOnUse" color-interpolation-filters="sRGB">
<feFlood flood-opacity="0" result="BackgroundImageFix"/>
<feBlend mode="normal" in="SourceGraphic" in2="BackgroundImageFix" result="shape"/>
<feColorMatrix in="SourceAlpha" type="matrix" values="0 0 0 0 0 0 0 0 0 0 0 0 0 0 0 0 0 0 127 0" result="hardAlpha"/>
<feOffset/>
<feGaussianBlur stdDeviation="2"/>
<feComposite in2="hardAlpha" operator="arithmetic" k2="-1" k3="1"/>
<feColorMatrix type="matrix" values="0 0 0 0 0 0 0 0 0 0 0 0 0 0 0 0 0 0 0.1 0"/>
<feBlend mode="normal" in2="shape" result="effect1_innerShadow_438_2278"/>
</filter>
<filter id="filter8_i_438_2278" x="44.1748" y="97.4912" width="196.091" height="89.7954" filterUnits="userSpaceOnUse" color-interpolation-filters="sRGB">
<feFlood flood-opacity="0" result="BackgroundImageFix"/>
<feBlend mode="normal" in="SourceGraphic" in2="BackgroundImageFix" result="shape"/>
<feColorMatrix in="SourceAlpha" type="matrix" values="0 0 0 0 0 0 0 0 0 0 0 0 0 0 0 0 0 0 127 0" result="hardAlpha"/>
<feOffset/>
<feGaussianBlur stdDeviation="2"/>
<feComposite in2="hardAlpha" operator="arithmetic" k2="-1" k3="1"/>
<feColorMatrix type="matrix" values="0 0 0 0 0 0 0 0 0 0 0 0 0 0 0 0 0 0 0.1 0"/>
<feBlend mode="normal" in2="shape" result="effect1_innerShadow_438_2278"/>
</filter>
<filter id="filter9_i_438_2278" x="174.781" y="526.232" width="190.387" height="75.2407" filterUnits="userSpaceOnUse" color-interpolation-filters="sRGB">
<feFlood flood-opacity="0" result="BackgroundImageFix"/>
<feBlend mode="normal" in="SourceGraphic" in2="BackgroundImageFix" result="shape"/>
<feColorMatrix in="SourceAlpha" type="matrix" values="0 0 0 0 0 0 0 0 0 0 0 0 0 0 0 0 0 0 127 0" result="hardAlpha"/>
<feOffset/>
<feGaussianBlur stdDeviation="2"/>
<feComposite in2="hardAlpha" operator="arithmetic" k2="-1" k3="1"/>
<feColorMatrix type="matrix" values="0 0 0 0 0 0 0 0 0 0 0 0 0 0 0 0 0 0 0.1 0"/>
<feBlend mode="normal" in2="shape" result="effect1_innerShadow_438_2278"/>
</filter>
<filter id="filter10_i_438_2278" x="55.2432" y="389.564" width="203.63" height="57.8594" filterUnits="userSpaceOnUse" color-interpolation-filters="sRGB">
<feFlood flood-opacity="0" result="BackgroundImageFix"/>
<feBlend mode="normal" in="SourceGraphic" in2="BackgroundImageFix" result="shape"/>
<feColorMatrix in="SourceAlpha" type="matrix" values="0 0 0 0 0 0 0 0 0 0 0 0 0 0 0 0 0 0 127 0" result="hardAlpha"/>
<feOffset/>
<feGaussianBlur stdDeviation="2"/>
<feComposite in2="hardAlpha" operator="arithmetic" k2="-1" k3="1"/>
<feColorMatrix type="matrix" values="0 0 0 0 0 0 0 0 0 0 0 0 0 0 0 0 0 0 0.1 0"/>
<feBlend mode="normal" in2="shape" result="effect1_innerShadow_438_2278"/>
</filter>
<filter id="filter11_i_438_2278" x="-5.65723" y="659.716" width="180.439" height="62.3511" filterUnits="userSpaceOnUse" color-interpolation-filters="sRGB">
<feFlood flood-opacity="0" result="BackgroundImageFix"/>
<feBlend mode="normal" in="SourceGraphic" in2="BackgroundImageFix" result="shape"/>
<feColorMatrix in="SourceAlpha" type="matrix" values="0 0 0 0 0 0 0 0 0 0 0 0 0 0 0 0 0 0 127 0" result="hardAlpha"/>
<feOffset/>
<feGaussianBlur stdDeviation="2"/>
<feComposite in2="hardAlpha" operator="arithmetic" k2="-1" k3="1"/>
<feColorMatrix type="matrix" values="0 0 0 0 0 0 0 0 0 0 0 0 0 0 0 0 0 0 0.1 0"/>
<feBlend mode="normal" in2="shape" result="effect1_innerShadow_438_2278"/>
</filter>
<filter id="filter12_i_438_2278" x="-39.3193" y="244.739" width="142.756" height="78.5908" filterUnits="userSpaceOnUse" color-interpolation-filters="sRGB">
<feFlood flood-opacity="0" result="BackgroundImageFix"/>
<feBlend mode="normal" in="SourceGraphic" in2="BackgroundImageFix" result="shape"/>
<feColorMatrix in="SourceAlpha" type="matrix" values="0 0 0 0 0 0 0 0 0 0 0 0 0 0 0 0 0 0 127 0" result="hardAlpha"/>
<feOffset/>
<feGaussianBlur stdDeviation="2"/>
<feComposite in2="hardAlpha" operator="arithmetic" k2="-1" k3="1"/>
<feColorMatrix type="matrix" values="0 0 0 0 0 0 0 0 0 0 0 0 0 0 0 0 0 0 0.1 0"/>
<feBlend mode="normal" in2="shape" result="effect1_innerShadow_438_2278"/>
</filter>
<filter id="filter13_i_438_2278" x="-80.1367" y="433.616" width="148.959" height="57.6045" filterUnits="userSpaceOnUse" color-interpolation-filters="sRGB">
<feFlood flood-opacity="0" result="BackgroundImageFix"/>
<feBlend mode="normal" in="SourceGraphic" in2="BackgroundImageFix" result="shape"/>
<feColorMatrix in="SourceAlpha" type="matrix" values="0 0 0 0 0 0 0 0 0 0 0 0 0 0 0 0 0 0 127 0" result="hardAlpha"/>
<feOffset/>
<feGaussianBlur stdDeviation="2"/>
<feComposite in2="hardAlpha" operator="arithmetic" k2="-1" k3="1"/>
<feColorMatrix type="matrix" values="0 0 0 0 0 0 0 0 0 0 0 0 0 0 0 0 0 0 0.1 0"/>
<feBlend mode="normal" in2="shape" result="effect1_innerShadow_438_2278"/>
</filter>
<clipPath id="clip0_438_2278">
<rect width="390" height="844" fill="white"/>
</clipPath>
</defs>
</svg>
