<svg width="390" height="845" viewBox="0 0 390 845" fill="none" xmlns="http://www.w3.org/2000/svg">
<g clip-path="url(#clip0_448_1185)">
<rect width="390" height="844" transform="translate(0 0.5)" fill="#ECFBC2"/>
<g filter="url(#filter0_i_448_1185)">
<rect x="43.9268" y="401.609" width="35.0054" height="13.22" rx="6.60999" fill="#DFFAA5"/>
</g>
<g filter="url(#filter1_i_448_1185)">
<rect x="172.718" y="58.4565" width="49.6195" height="25.1575" rx="12.5787" fill="#DFFAA5"/>
</g>
<g filter="url(#filter2_i_448_1185)">
<path fill-rule="evenodd" clip-rule="evenodd" d="M39.4962 76.4868C39.4962 81.4582 35.4661 85.4883 30.4947 85.4883L-1.48831 85.4883C-6.45969 85.4883 -10.4898 81.4582 -10.4898 76.4868C-10.4898 75.1203 -10.1853 73.8249 -9.64041 72.6648C-9.4055 72.1646 -9.74676 71.542 -10.2993 71.542V71.542C-32.0782 71.542 -49.7334 53.8867 -49.7334 32.1079C-49.7334 10.3291 -32.0781 -7.32619 -10.2993 -7.32619L102.394 -7.32618C102.409 -7.32618 102.421 -7.33799 102.421 -7.35255V-7.35255C102.421 -15.5047 109.029 -22.1133 117.181 -22.1133L158.831 -22.1133C166.983 -22.1133 173.592 -15.5047 173.592 -7.35254C173.592 0.799591 166.983 7.4082 158.831 7.4082V7.4082C152.239 7.4082 148.105 15.5494 149.804 21.919C150.671 25.1692 151.133 28.5846 151.133 32.1079C151.133 53.8867 133.478 71.542 111.699 71.542L43.2527 71.542C41.007 71.542 39.4962 74.2411 39.4962 76.4868V76.4868Z" fill="#D3F4FB"/>
</g>
<g filter="url(#filter3_i_448_1185)">
<path d="M0 375.67H37.0408C43.9878 375.67 49.6195 381.302 49.6195 388.249V388.249C49.6195 395.196 43.9878 400.828 37.0407 400.828H0V375.67Z" fill="#DFFAA5"/>
</g>
<g filter="url(#filter4_i_448_1185)">
<rect x="139.908" y="104.614" width="32.8098" height="16.6348" rx="8.31742" fill="#DFFAA5"/>
</g>
<g filter="url(#filter5_i_448_1185)">
<path d="M30.9551 788.628C30.9551 781.271 36.9191 775.307 44.2761 775.307H92.6096C99.9666 775.307 105.931 781.271 105.931 788.628V788.628C105.931 795.985 99.9666 801.949 92.6096 801.949H44.2761C36.9191 801.949 30.9551 795.985 30.9551 788.628V788.628Z" fill="#DFFAA5"/>
</g>
<g filter="url(#filter6_i_448_1185)">
<path fill-rule="evenodd" clip-rule="evenodd" d="M171.846 668.088C167.011 668.088 163.091 672.008 163.091 676.843C163.091 681.679 167.011 685.599 171.846 685.599H181.957C178.297 689.32 176.038 694.425 176.038 700.058C176.038 711.445 185.27 720.677 196.657 720.677H240.676C252.063 720.677 261.295 711.445 261.295 700.058C261.295 688.67 252.063 679.438 240.676 679.438H214.534C214.789 678.618 214.925 677.747 214.925 676.843C214.925 672.008 211.005 668.088 206.17 668.088H171.846Z" fill="#DFFAA5"/>
</g>
<g filter="url(#filter7_i_448_1185)">
<path fill-rule="evenodd" clip-rule="evenodd" d="M148.725 528.305C149.106 523.088 153.46 518.973 158.775 518.973H200.849C205.388 518.973 209.225 521.974 210.487 526.099H266.471C277.628 526.099 286.672 535.143 286.672 546.3C286.672 557.456 277.628 566.501 266.471 566.501L221.687 566.501C221.687 572.066 217.176 576.578 211.61 576.578H199.7C194.135 576.578 189.623 572.066 189.623 566.501L157.914 566.501C146.757 566.501 137.713 557.456 137.713 546.3C137.713 538.452 142.188 531.65 148.725 528.305Z" fill="#DFFAA5"/>
</g>
<g filter="url(#filter8_i_448_1185)">
<path fill-rule="evenodd" clip-rule="evenodd" d="M251.138 741.283C251.138 731.171 259.336 722.973 269.448 722.973H313.057C323.169 722.973 331.367 731.171 331.367 741.283C331.367 743.292 331.043 745.225 330.445 747.034H396.872C414.629 747.034 429.024 761.429 429.024 779.186C429.024 796.943 414.629 811.338 396.872 811.338H345.132C344.132 820.506 336.365 827.64 326.932 827.64H322.212C312.778 827.64 305.011 820.506 304.011 811.338H269.128C251.371 811.338 236.976 796.943 236.976 779.186C236.976 766.957 243.804 756.322 253.856 750.886C252.132 748.094 251.138 744.804 251.138 741.283Z" fill="#DFFAA5"/>
</g>
<g filter="url(#filter9_i_448_1185)">
<path fill-rule="evenodd" clip-rule="evenodd" d="M230.87 -0.944192C231.391 -8.07198 237.339 -13.693 244.599 -13.693H302.079C308.279 -13.693 313.522 -9.59395 315.245 -3.95794H391.727C406.969 -3.95794 419.324 8.39763 419.324 23.639C419.324 38.8804 406.969 51.236 391.727 51.236H330.547C330.547 51.236 330.547 51.236 330.547 51.2361C330.547 58.839 324.383 65.0025 316.78 65.0025H300.509C292.906 65.0025 286.743 58.839 286.743 51.2361C286.743 51.236 286.743 51.236 286.743 51.236H243.423C228.182 51.236 215.826 38.8804 215.826 23.639C215.826 12.9182 221.939 3.62528 230.87 -0.944192Z" fill="#DFFAA5"/>
</g>
<g filter="url(#filter10_i_448_1185)">
<path fill-rule="evenodd" clip-rule="evenodd" d="M143.555 295.228C140.329 295.228 137.713 297.843 137.713 301.07C137.713 304.297 140.329 306.913 143.555 306.913H158.481C161.708 306.913 164.324 304.297 164.324 301.07C164.324 297.843 161.708 295.228 158.481 295.228H143.555ZM171.129 312.078C168.803 312.078 166.917 313.964 166.917 316.291C166.917 318.617 168.803 320.503 171.129 320.503H178.726C181.053 320.503 182.939 318.617 182.939 316.291C182.939 313.964 181.053 312.078 178.726 312.078H171.129ZM193.253 320.644C193.253 311.736 200.475 304.514 209.383 304.514H328.709C343.089 304.514 354.747 316.171 354.747 330.552V330.552C354.747 344.932 343.089 356.589 328.709 356.589H277.136H193.253H167.837C162.366 356.589 157.93 352.153 157.93 346.682V346.682C157.93 341.21 162.366 336.774 167.837 336.774H177.123C186.031 336.774 193.253 329.552 193.253 320.644V320.644Z" fill="#DFFAA5"/>
</g>
<g filter="url(#filter11_i_448_1185)">
<path fill-rule="evenodd" clip-rule="evenodd" d="M75.0422 665.676C75.0422 660.704 79.0723 656.674 84.0437 656.674H108.273C113.244 656.674 117.274 660.704 117.274 665.676V665.676C117.274 668.177 118.653 671.282 121.071 671.92C137.969 676.372 150.43 691.758 150.43 710.055C150.43 731.834 132.775 749.489 110.996 749.489H21.9051C21.8906 749.489 21.8789 749.501 21.8789 749.515V749.515C21.8789 757.667 15.2703 764.276 7.11816 764.276H-23.4912C-31.6433 764.276 -38.252 757.667 -38.252 749.515C-38.252 741.363 -31.6433 734.754 -23.4912 734.754V734.754C-18.3002 734.754 -15.1231 728.443 -16.9015 723.566C-18.4384 719.351 -19.2769 714.801 -19.2769 710.055C-19.2769 688.276 -1.62162 670.621 20.1572 670.621H71.2856C73.5313 670.621 75.0422 667.922 75.0422 665.676V665.676Z" fill="#D3F4FB"/>
</g>
<g filter="url(#filter12_i_448_1185)">
<path fill-rule="evenodd" clip-rule="evenodd" d="M111.182 410.534C111.182 402.448 117.737 395.894 125.823 395.894H212.609C220.694 395.894 227.249 402.448 227.249 410.534V410.534C227.249 418.62 233.804 425.174 241.89 425.174H277.062C280.099 425.174 282.562 427.637 282.562 430.674V430.674C282.562 433.712 280.099 436.174 277.062 436.174H262.207C257.353 436.174 253.418 440.109 253.418 444.964V444.964C253.418 449.818 249.483 453.753 244.629 453.753H142.436C137.582 453.753 133.647 449.818 133.647 444.964V444.964C133.647 440.109 129.712 436.174 124.858 436.174H111.182H84.4316C81.3941 436.174 78.9316 433.712 78.9316 430.674V430.674C78.9316 427.637 81.3941 425.174 84.4316 425.174H96.5418C104.627 425.174 111.182 418.62 111.182 410.534V410.534Z" fill="#D3F4FB"/>
</g>
<g filter="url(#filter13_i_448_1185)">
<path fill-rule="evenodd" clip-rule="evenodd" d="M6.41187 185.187C-7.61679 185.187 -18.9893 196.559 -18.9893 210.588C-18.9893 224.617 -7.61679 235.989 6.41187 235.989H51.2674C52.8069 242.607 58.7418 247.538 65.8284 247.538H97.3345C105.591 247.538 112.284 240.845 112.284 232.589C112.284 224.332 105.591 217.639 97.3345 217.639H92.1609C92.8065 215.4 93.1523 213.035 93.1523 210.588C93.1523 196.559 81.7799 185.187 67.7512 185.187H6.41187Z" fill="#DFFAA5"/>
</g>
<g filter="url(#filter14_i_448_1185)">
<path fill-rule="evenodd" clip-rule="evenodd" d="M374.088 519.987C364.312 519.987 356.387 527.912 356.387 537.688C356.387 541.437 357.552 544.913 359.541 547.775H342.976C328.948 547.775 317.575 559.148 317.575 573.177C317.575 587.205 328.948 598.578 342.976 598.578H404.316C418.344 598.578 429.717 587.205 429.717 573.177C429.717 566.25 426.944 559.971 422.449 555.389H442.63C452.406 555.389 460.331 547.464 460.331 537.688C460.331 527.912 452.406 519.987 442.63 519.987H374.088Z" fill="#DFFAA5"/>
</g>
<path d="M44.1753 844.5C44.1753 797.44 82.4553 759.16 129.505 759.16H260.495C291.005 759.16 315.815 734.34 315.815 703.83C315.815 673.32 290.995 648.48 260.495 648.48H129.505C82.4553 648.48 44.1753 610.2 44.1753 563.15C44.1753 516.1 82.4553 477.81 129.505 477.81H260.495C291.005 477.81 315.815 452.99 315.825 422.49C315.825 407.71 310.065 393.81 299.615 383.36C289.165 372.91 275.275 367.16 260.505 367.16H260.495C218.145 367.16 168.765 367.17 129.505 367.18C106.715 367.18 85.2853 358.31 69.1753 342.19C53.0453 326.08 44.1753 304.65 44.1753 281.86C44.1753 234.79 82.4553 196.51 129.505 196.51H260.495C291.005 196.51 315.815 171.69 315.815 141.18C315.815 110.67 290.995 85.8298 260.495 85.8298H-2.13574V55.8398H260.495C307.545 55.8398 345.815 94.1198 345.815 141.16C345.815 188.2 307.535 226.51 260.495 226.51H129.505C98.9953 226.51 74.1753 251.33 74.1753 281.83C74.1753 296.63 79.9253 310.53 90.3753 320.98C100.825 331.43 114.715 337.18 129.495 337.18C168.755 337.18 218.135 337.18 260.475 337.16H260.495C283.285 337.16 304.705 346.03 320.825 362.14C336.945 378.26 345.825 399.69 345.825 422.48C345.825 469.53 307.545 507.8 260.495 507.8H129.505C98.9953 507.8 74.1753 532.62 74.1753 563.13C74.1753 593.64 98.9953 618.47 129.505 618.47H260.495C307.545 618.47 345.815 656.75 345.815 703.79C345.815 750.83 307.535 789.14 260.495 789.14H129.505C98.9953 789.14 74.1753 813.96 74.1753 844.46H44.1753V844.5Z" fill="#FFFEE6"/>
</g>
<defs>
<filter id="filter0_i_448_1185" x="43.9268" y="401.609" width="35.0049" height="13.2202" filterUnits="userSpaceOnUse" color-interpolation-filters="sRGB">
<feFlood flood-opacity="0" result="BackgroundImageFix"/>
<feBlend mode="normal" in="SourceGraphic" in2="BackgroundImageFix" result="shape"/>
<feColorMatrix in="SourceAlpha" type="matrix" values="0 0 0 0 0 0 0 0 0 0 0 0 0 0 0 0 0 0 127 0" result="hardAlpha"/>
<feOffset/>
<feGaussianBlur stdDeviation="2"/>
<feComposite in2="hardAlpha" operator="arithmetic" k2="-1" k3="1"/>
<feColorMatrix type="matrix" values="0 0 0 0 0 0 0 0 0 0 0 0 0 0 0 0 0 0 0.1 0"/>
<feBlend mode="normal" in2="shape" result="effect1_innerShadow_448_1185"/>
</filter>
<filter id="filter1_i_448_1185" x="172.718" y="58.4565" width="49.6191" height="25.1577" filterUnits="userSpaceOnUse" color-interpolation-filters="sRGB">
<feFlood flood-opacity="0" result="BackgroundImageFix"/>
<feBlend mode="normal" in="SourceGraphic" in2="BackgroundImageFix" result="shape"/>
<feColorMatrix in="SourceAlpha" type="matrix" values="0 0 0 0 0 0 0 0 0 0 0 0 0 0 0 0 0 0 127 0" result="hardAlpha"/>
<feOffset/>
<feGaussianBlur stdDeviation="2"/>
<feComposite in2="hardAlpha" operator="arithmetic" k2="-1" k3="1"/>
<feColorMatrix type="matrix" values="0 0 0 0 0 0 0 0 0 0 0 0 0 0 0 0 0 0 0.1 0"/>
<feBlend mode="normal" in2="shape" result="effect1_innerShadow_448_1185"/>
</filter>
<filter id="filter2_i_448_1185" x="-49.7334" y="-22.1133" width="223.325" height="107.602" filterUnits="userSpaceOnUse" color-interpolation-filters="sRGB">
<feFlood flood-opacity="0" result="BackgroundImageFix"/>
<feBlend mode="normal" in="SourceGraphic" in2="BackgroundImageFix" result="shape"/>
<feColorMatrix in="SourceAlpha" type="matrix" values="0 0 0 0 0 0 0 0 0 0 0 0 0 0 0 0 0 0 127 0" result="hardAlpha"/>
<feOffset/>
<feGaussianBlur stdDeviation="2"/>
<feComposite in2="hardAlpha" operator="arithmetic" k2="-1" k3="1"/>
<feColorMatrix type="matrix" values="0 0 0 0 0 0 0 0 0 0 0 0 0 0 0 0 0 0 0.1 0"/>
<feBlend mode="normal" in2="shape" result="effect1_innerShadow_448_1185"/>
</filter>
<filter id="filter3_i_448_1185" x="0" y="375.67" width="49.6191" height="25.1577" filterUnits="userSpaceOnUse" color-interpolation-filters="sRGB">
<feFlood flood-opacity="0" result="BackgroundImageFix"/>
<feBlend mode="normal" in="SourceGraphic" in2="BackgroundImageFix" result="shape"/>
<feColorMatrix in="SourceAlpha" type="matrix" values="0 0 0 0 0 0 0 0 0 0 0 0 0 0 0 0 0 0 127 0" result="hardAlpha"/>
<feOffset/>
<feGaussianBlur stdDeviation="2"/>
<feComposite in2="hardAlpha" operator="arithmetic" k2="-1" k3="1"/>
<feColorMatrix type="matrix" values="0 0 0 0 0 0 0 0 0 0 0 0 0 0 0 0 0 0 0.1 0"/>
<feBlend mode="normal" in2="shape" result="effect1_innerShadow_448_1185"/>
</filter>
<filter id="filter4_i_448_1185" x="139.908" y="104.614" width="32.8096" height="16.6348" filterUnits="userSpaceOnUse" color-interpolation-filters="sRGB">
<feFlood flood-opacity="0" result="BackgroundImageFix"/>
<feBlend mode="normal" in="SourceGraphic" in2="BackgroundImageFix" result="shape"/>
<feColorMatrix in="SourceAlpha" type="matrix" values="0 0 0 0 0 0 0 0 0 0 0 0 0 0 0 0 0 0 127 0" result="hardAlpha"/>
<feOffset/>
<feGaussianBlur stdDeviation="2"/>
<feComposite in2="hardAlpha" operator="arithmetic" k2="-1" k3="1"/>
<feColorMatrix type="matrix" values="0 0 0 0 0 0 0 0 0 0 0 0 0 0 0 0 0 0 0.1 0"/>
<feBlend mode="normal" in2="shape" result="effect1_innerShadow_448_1185"/>
</filter>
<filter id="filter5_i_448_1185" x="30.9551" y="775.307" width="74.9756" height="26.6421" filterUnits="userSpaceOnUse" color-interpolation-filters="sRGB">
<feFlood flood-opacity="0" result="BackgroundImageFix"/>
<feBlend mode="normal" in="SourceGraphic" in2="BackgroundImageFix" result="shape"/>
<feColorMatrix in="SourceAlpha" type="matrix" values="0 0 0 0 0 0 0 0 0 0 0 0 0 0 0 0 0 0 127 0" result="hardAlpha"/>
<feOffset/>
<feGaussianBlur stdDeviation="2"/>
<feComposite in2="hardAlpha" operator="arithmetic" k2="-1" k3="1"/>
<feColorMatrix type="matrix" values="0 0 0 0 0 0 0 0 0 0 0 0 0 0 0 0 0 0 0.1 0"/>
<feBlend mode="normal" in2="shape" result="effect1_innerShadow_448_1185"/>
</filter>
<filter id="filter6_i_448_1185" x="163.091" y="668.088" width="98.2041" height="52.5889" filterUnits="userSpaceOnUse" color-interpolation-filters="sRGB">
<feFlood flood-opacity="0" result="BackgroundImageFix"/>
<feBlend mode="normal" in="SourceGraphic" in2="BackgroundImageFix" result="shape"/>
<feColorMatrix in="SourceAlpha" type="matrix" values="0 0 0 0 0 0 0 0 0 0 0 0 0 0 0 0 0 0 127 0" result="hardAlpha"/>
<feOffset/>
<feGaussianBlur stdDeviation="2"/>
<feComposite in2="hardAlpha" operator="arithmetic" k2="-1" k3="1"/>
<feColorMatrix type="matrix" values="0 0 0 0 0 0 0 0 0 0 0 0 0 0 0 0 0 0 0.1 0"/>
<feBlend mode="normal" in2="shape" result="effect1_innerShadow_448_1185"/>
</filter>
<filter id="filter7_i_448_1185" x="137.713" y="518.973" width="148.959" height="57.6045" filterUnits="userSpaceOnUse" color-interpolation-filters="sRGB">
<feFlood flood-opacity="0" result="BackgroundImageFix"/>
<feBlend mode="normal" in="SourceGraphic" in2="BackgroundImageFix" result="shape"/>
<feColorMatrix in="SourceAlpha" type="matrix" values="0 0 0 0 0 0 0 0 0 0 0 0 0 0 0 0 0 0 127 0" result="hardAlpha"/>
<feOffset/>
<feGaussianBlur stdDeviation="2"/>
<feComposite in2="hardAlpha" operator="arithmetic" k2="-1" k3="1"/>
<feColorMatrix type="matrix" values="0 0 0 0 0 0 0 0 0 0 0 0 0 0 0 0 0 0 0.1 0"/>
<feBlend mode="normal" in2="shape" result="effect1_innerShadow_448_1185"/>
</filter>
<filter id="filter8_i_448_1185" x="236.976" y="722.973" width="192.048" height="104.667" filterUnits="userSpaceOnUse" color-interpolation-filters="sRGB">
<feFlood flood-opacity="0" result="BackgroundImageFix"/>
<feBlend mode="normal" in="SourceGraphic" in2="BackgroundImageFix" result="shape"/>
<feColorMatrix in="SourceAlpha" type="matrix" values="0 0 0 0 0 0 0 0 0 0 0 0 0 0 0 0 0 0 127 0" result="hardAlpha"/>
<feOffset/>
<feGaussianBlur stdDeviation="2"/>
<feComposite in2="hardAlpha" operator="arithmetic" k2="-1" k3="1"/>
<feColorMatrix type="matrix" values="0 0 0 0 0 0 0 0 0 0 0 0 0 0 0 0 0 0 0.1 0"/>
<feBlend mode="normal" in2="shape" result="effect1_innerShadow_448_1185"/>
</filter>
<filter id="filter9_i_448_1185" x="215.826" y="-13.6929" width="203.498" height="78.6953" filterUnits="userSpaceOnUse" color-interpolation-filters="sRGB">
<feFlood flood-opacity="0" result="BackgroundImageFix"/>
<feBlend mode="normal" in="SourceGraphic" in2="BackgroundImageFix" result="shape"/>
<feColorMatrix in="SourceAlpha" type="matrix" values="0 0 0 0 0 0 0 0 0 0 0 0 0 0 0 0 0 0 127 0" result="hardAlpha"/>
<feOffset/>
<feGaussianBlur stdDeviation="2"/>
<feComposite in2="hardAlpha" operator="arithmetic" k2="-1" k3="1"/>
<feColorMatrix type="matrix" values="0 0 0 0 0 0 0 0 0 0 0 0 0 0 0 0 0 0 0.1 0"/>
<feBlend mode="normal" in2="shape" result="effect1_innerShadow_448_1185"/>
</filter>
<filter id="filter10_i_448_1185" x="137.713" y="295.228" width="217.034" height="61.3618" filterUnits="userSpaceOnUse" color-interpolation-filters="sRGB">
<feFlood flood-opacity="0" result="BackgroundImageFix"/>
<feBlend mode="normal" in="SourceGraphic" in2="BackgroundImageFix" result="shape"/>
<feColorMatrix in="SourceAlpha" type="matrix" values="0 0 0 0 0 0 0 0 0 0 0 0 0 0 0 0 0 0 127 0" result="hardAlpha"/>
<feOffset/>
<feGaussianBlur stdDeviation="2"/>
<feComposite in2="hardAlpha" operator="arithmetic" k2="-1" k3="1"/>
<feColorMatrix type="matrix" values="0 0 0 0 0 0 0 0 0 0 0 0 0 0 0 0 0 0 0.1 0"/>
<feBlend mode="normal" in2="shape" result="effect1_innerShadow_448_1185"/>
</filter>
<filter id="filter11_i_448_1185" x="-38.252" y="656.674" width="188.682" height="107.602" filterUnits="userSpaceOnUse" color-interpolation-filters="sRGB">
<feFlood flood-opacity="0" result="BackgroundImageFix"/>
<feBlend mode="normal" in="SourceGraphic" in2="BackgroundImageFix" result="shape"/>
<feColorMatrix in="SourceAlpha" type="matrix" values="0 0 0 0 0 0 0 0 0 0 0 0 0 0 0 0 0 0 127 0" result="hardAlpha"/>
<feOffset/>
<feGaussianBlur stdDeviation="2"/>
<feComposite in2="hardAlpha" operator="arithmetic" k2="-1" k3="1"/>
<feColorMatrix type="matrix" values="0 0 0 0 0 0 0 0 0 0 0 0 0 0 0 0 0 0 0.1 0"/>
<feBlend mode="normal" in2="shape" result="effect1_innerShadow_448_1185"/>
</filter>
<filter id="filter12_i_448_1185" x="78.9316" y="395.894" width="203.63" height="57.8594" filterUnits="userSpaceOnUse" color-interpolation-filters="sRGB">
<feFlood flood-opacity="0" result="BackgroundImageFix"/>
<feBlend mode="normal" in="SourceGraphic" in2="BackgroundImageFix" result="shape"/>
<feColorMatrix in="SourceAlpha" type="matrix" values="0 0 0 0 0 0 0 0 0 0 0 0 0 0 0 0 0 0 127 0" result="hardAlpha"/>
<feOffset/>
<feGaussianBlur stdDeviation="2"/>
<feComposite in2="hardAlpha" operator="arithmetic" k2="-1" k3="1"/>
<feColorMatrix type="matrix" values="0 0 0 0 0 0 0 0 0 0 0 0 0 0 0 0 0 0 0.1 0"/>
<feBlend mode="normal" in2="shape" result="effect1_innerShadow_448_1185"/>
</filter>
<filter id="filter13_i_448_1185" x="-18.9893" y="185.187" width="131.273" height="62.3511" filterUnits="userSpaceOnUse" color-interpolation-filters="sRGB">
<feFlood flood-opacity="0" result="BackgroundImageFix"/>
<feBlend mode="normal" in="SourceGraphic" in2="BackgroundImageFix" result="shape"/>
<feColorMatrix in="SourceAlpha" type="matrix" values="0 0 0 0 0 0 0 0 0 0 0 0 0 0 0 0 0 0 127 0" result="hardAlpha"/>
<feOffset/>
<feGaussianBlur stdDeviation="2"/>
<feComposite in2="hardAlpha" operator="arithmetic" k2="-1" k3="1"/>
<feColorMatrix type="matrix" values="0 0 0 0 0 0 0 0 0 0 0 0 0 0 0 0 0 0 0.1 0"/>
<feBlend mode="normal" in2="shape" result="effect1_innerShadow_448_1185"/>
</filter>
<filter id="filter14_i_448_1185" x="317.575" y="519.987" width="142.756" height="78.5908" filterUnits="userSpaceOnUse" color-interpolation-filters="sRGB">
<feFlood flood-opacity="0" result="BackgroundImageFix"/>
<feBlend mode="normal" in="SourceGraphic" in2="BackgroundImageFix" result="shape"/>
<feColorMatrix in="SourceAlpha" type="matrix" values="0 0 0 0 0 0 0 0 0 0 0 0 0 0 0 0 0 0 127 0" result="hardAlpha"/>
<feOffset/>
<feGaussianBlur stdDeviation="2"/>
<feComposite in2="hardAlpha" operator="arithmetic" k2="-1" k3="1"/>
<feColorMatrix type="matrix" values="0 0 0 0 0 0 0 0 0 0 0 0 0 0 0 0 0 0 0.1 0"/>
<feBlend mode="normal" in2="shape" result="effect1_innerShadow_448_1185"/>
</filter>
<clipPath id="clip0_448_1185">
<rect width="390" height="844" fill="white" transform="translate(0 0.5)"/>
</clipPath>
</defs>
</svg>
